Coordinates
version=1
nRows=12
nColumns=46
inDegrees=yes

Units are S.I. units (second, meters, Newtons, ...)
Angles are in degrees.

endheader
time	pelvis_tilt	pelvis_list	pelvis_rotation	pelvis_tx	pelvis_ty	pelvis_tz	bb_angle	bb_tx	bb_ty	bb_tz	hip_flexion_r	hip_adduction_r	hip_rotation_r	knee_angle_r	knee_angle_r_beta	ankle_angle_r	subtalar_angle_r	mtp_angle_r	crank_angle_r	hip_flexion_l	hip_adduction_l	hip_rotation_l	knee_angle_l	knee_angle_l_beta	ankle_angle_l	subtalar_angle_l	mtp_angle_l	crank_angle_l	lumbar_extension	lumbar_bending	lumbar_rotation	arm_flex_r	arm_add_r	arm_rot_r	elbow_flex_r	pro_sup_r	wrist_flex_r	wrist_dev_r	arm_flex_l	arm_add_l	arm_rot_l	elbow_flex_l	pro_sup_l	wrist_flex_l	wrist_dev_l
      2.50500000	    -12.02290584	      0.24672941	     -2.75151866	      0.15822780	      1.07276388	     -0.29447056	      0.00000000	      0.50000000	      0.00000000	      0.25000000	     71.69500388	      0.93689169	      6.38413823	    105.83559742	      1.84717964	     -1.93512246	    -14.46061029	      0.00000000	      0.00000000	     51.34927384	     -8.14505937	     -1.16046459	     38.32088493	      0.66882561	    -14.68406141	     -1.48807610	      0.00000000	      0.00000000	    -65.24737531	    -11.26068155	      0.28174457	     89.15984615	    -16.26128214	     22.44209820	     41.24065591	     38.42887049	      0.00000000	      0.00000000	     89.37859842	     -0.59153809	     19.67789225	     57.00886043	     37.55212479	      0.00000000	      0.00000000
      2.51000000	    -11.75774426	      0.01878825	     -2.98771641	      0.15859014	      1.07262550	     -0.29432724	      0.00000000	      0.50000000	      0.00000000	      0.25000000	     72.20626997	      1.10405614	      6.19093391	    106.67375376	      1.86180823	     -1.69388729	    -14.24704069	      0.00000000	      0.00000000	     50.47462283	     -8.52886062	     -1.32728248	     37.53181875	      0.65505381	    -15.69143379	     -1.08233681	      0.00000000	      0.00000000	    -65.35606853	    -11.21843842	      0.62467470	     89.11208460	    -16.22585837	     22.11140613	     41.69938964	     38.54478497	      0.00000000	      0.00000000	     89.32314356	     -0.54814909	     19.41613230	     57.07524433	     37.75772575	      0.00000000	      0.00000000
      2.51500000	    -11.55288320	     -0.13675136	     -3.16690784	      0.15892110	      1.07203751	     -0.29430542	      0.00000000	      0.50000000	      0.00000000	      0.25000000	     72.86059924	      1.15402791	      6.04231959	    107.63645126	      1.87861047	     -1.31595510	    -13.86328966	      0.00000000	      0.00000000	     49.74616339	     -8.78576013	     -1.44240326	     36.92939039	      0.64453945	    -16.57347623	     -0.85138468	      0.00000000	      0.00000000	    -65.12189423	    -11.14807096	      0.91895355	     89.16638116	    -15.86328820	     22.80510749	     40.50204825	     38.16540935	      0.00000000	      0.00000000	     89.31114348	     -0.53808143	     19.62225941	     55.73432336	     37.48297570	      0.00000000	      0.00000000
      2.52000000	    -11.34388852	     -0.33480585	     -3.33748273	      0.15925375	      1.07164355	     -0.29415063	      0.00000000	      0.50000000	      0.00000000	      0.25000000	     73.44414641	      1.25737628	      5.85826877	    108.49328012	      1.89356495	     -0.90721646	    -13.59535331	      0.00000000	      0.00000000	     48.99803108	     -9.08085223	     -1.54516617	     36.27950010	      0.63319673	    -17.51040761	     -0.60468495	      0.00000000	      0.00000000	    -65.02064020	    -11.05131405	      1.23271949	     89.17728690	    -15.62314163	     23.08362547	     40.00388866	     37.95883921	      0.00000000	      0.00000000	     89.27309138	     -0.54650412	     19.61555412	     55.07258825	     37.44950568	      0.00000000	      0.00000000
      2.52500000	    -10.99409444	     -0.53876388	     -3.56605129	      0.15957426	      1.07163050	     -0.29408520	      0.00000000	      0.50000000	      0.00000000	      0.25000000	     73.88691854	      1.34974089	      5.62851060	    109.25664766	      1.90688823	     -0.95239387	    -13.41049366	      0.00000000	      0.00000000	     48.06255725	     -9.39589605	     -1.70505223	     35.59938028	      0.62132640	    -18.53873034	     -0.43478686	      0.00000000	      0.00000000	    -65.22026268	    -10.95819987	      1.64014674	     89.15261224	    -15.58269530	     22.64347371	     40.57426527	     38.12083786	      0.00000000	      0.00000000	     89.20962000	     -0.52970340	     19.33327514	     55.32134629	     37.69594246	      0.00000000	      0.00000000
      2.53000000	    -10.67955660	     -0.71810991	     -3.76501176	      0.15988315	      1.07143987	     -0.29404872	      0.00000000	      0.50000000	      0.00000000	      0.25000000	     74.37678992	      1.39616283	      5.39260870	    110.05207700	      1.92077109	     -0.71584111	    -13.45690629	      0.00000000	      0.00000000	     47.20205722	     -9.65610001	     -1.79945085	     34.96625179	      0.61027622	    -19.65390290	     -0.34316888	      0.00000000	      0.00000000	    -65.32142261	    -10.89299886	      1.92346286	     89.12785169	    -15.40475669	     22.32245820	     40.74879760	     38.21363312	      0.00000000	      0.00000000	     89.15191239	     -0.51535807	     19.13865695	     55.14483051	     37.87195315	      0.00000000	      0.00000000
      2.53500000	    -10.57778432	     -0.83906619	     -3.95250834	      0.16015087	      1.07064730	     -0.29394517	      0.00000000	      0.50000000	      0.00000000	      0.25000000	     75.14113068	      1.45016230	      5.32318761	    110.90919445	      1.93573061	     -0.03695912	    -12.55248920	      0.00000000	      0.00000000	     46.67675507	     -9.89145221	     -1.97071489	     34.57007852	      0.60336169	    -20.52894409	     -0.29049713	      0.00000000	      0.00000000	    -64.94148577	    -10.80277982	      2.07518255	     89.19076899	    -14.78822726	     23.12378208	     39.18792297	     37.93588994	      0.00000000	      0.00000000	     89.14857302	     -0.66341899	     19.52770362	     53.34501188	     37.67372618	      0.00000000	      0.00000000
      2.54000000	    -10.52530489	     -1.09687611	     -4.10294075	      0.16029245	      1.06980424	     -0.29386374	      0.00000000	      0.50000000	      0.00000000	      0.25000000	     75.92729142	      1.52211274	      5.07013179	    111.65538650	      1.94875412	      0.41297615	    -12.35305803	      0.00000000	      0.00000000	     46.28171291	    -10.22041305	     -1.97482916	     34.26517327	      0.59804009	    -21.37762861	     -0.03007582	      0.00000000	      0.00000000	    -64.59945203	    -10.59696370	      2.42364352	     89.22349927	    -14.44868614	     23.83775547	     38.24736166	     37.62690141	      0.00000000	      0.00000000	     89.09937679	     -0.77341222	     19.72557164	     52.38289032	     37.60484675	      0.00000000	      0.00000000
      2.54500000	    -10.33109906	     -1.23297392	     -4.30438176	      0.16048848	      1.06936018	     -0.29379453	      0.00000000	      0.50000000	      0.00000000	      0.25000000	     76.55478620	      1.57446935	      4.88036615	    112.36402370	      1.96112217	      0.68941817	    -12.21131850	      0.00000000	      0.00000000	     45.64504943	    -10.46387675	     -2.14848917	     33.83293186	      0.59049606	    -22.44483077	      0.03662418	      0.00000000	      0.00000000	    -64.51565008	    -10.49734367	      2.68896840	     89.22656041	    -14.19835439	     24.02489516	     37.99132964	     37.45956588	      0.00000000	      0.00000000	     89.05668214	     -0.88965995	     19.77699223	     51.84184514	     37.48503292	      0.00000000	      0.00000000
      2.55000000	    -10.28683475	     -1.50027503	     -4.40820148	      0.16065144	      1.06864275	     -0.29380927	      0.00000000	      0.50000000	      0.00000000	      0.25000000	     77.29773777	      1.60904068	      4.58242278	    113.02775672	      1.97270650	      1.11768933	    -11.99081633	      0.00000000	      0.00000000	     45.28340953	    -10.76712395	     -2.14393185	     33.53047727	      0.58521723	    -23.51105498	      0.29788383	      0.00000000	      0.00000000	    -64.40314111	    -10.23303661	      3.13012556	     89.15668626	    -14.12874086	     23.51799928	     38.83891929	     37.72960768	      0.00000000	      0.00000000	     88.92117859	     -0.97139610	     19.35582235	     52.37881844	     37.81716779	      0.00000000	      0.00000000
      2.55500000	    -10.05021094	     -1.44626642	     -4.62954825	      0.16081489	      1.06827095	     -0.29385680	      0.00000000	      0.50000000	      0.00000000	      0.25000000	     77.89837676	      1.56660122	      4.60690978	    113.68133695	      1.98411363	      1.61347552	    -11.70737185	      0.00000000	      0.00000000	     44.56868723	    -10.79551229	     -2.34213755	     33.13838403	      0.57837391	    -24.44012270	     -0.04759956	      0.00000000	      0.00000000	    -64.22065951	    -10.26016019	      3.20576012	     89.22170127	    -13.50301157	     23.47266487	     37.13112604	     37.92196342	      0.00000000	      0.00000000	     89.02230787	     -0.83184493	     19.55472725	     49.97317301	     38.44497452	      0.00000000	      0.00000000
      2.56000000	     -9.93548320	     -1.64902557	     -4.73325264	      0.16086932	      1.06780291	     -0.29386230	      0.00000000	      0.50000000	      0.00000000	      0.25000000	     78.55770332	      1.53842094	      4.33909566	    114.24459763	      1.99394438	      1.95633509	    -11.53307051	      0.00000000	      0.00000000	     44.11848167	    -11.00152964	     -2.30228233	     32.86865800	      0.57366630	    -25.46439127	     -0.12067947	      0.00000000	      0.00000000	    -64.08412350	    -10.04460423	      3.60517663	     89.26542943	    -13.98283155	     26.12219225	     37.09753411	     36.41123175	      0.00000000	      0.00000000	     88.96799986	     -0.97711785	     20.16142551	     49.78203635	     37.68852886	      0.00000000	      0.00000000
